<mxfile host="app.diagrams.net" modified="2022-11-16T15:04:32.468Z" agent="5.0 (X11)" etag="m9dUp_AHsg0MhGfX0_97" version="20.5.3" type="github" pages="2">
  <diagram id="C5RBs43oDa-KdzZeNtuy" name="dictionary">
    <mxGraphModel dx="667" dy="457" grid="1" gridSize="10" guides="1" tooltips="1" connect="1" arrows="1" fold="1" page="1" pageScale="1" pageWidth="827" pageHeight="1169" math="0" shadow="0">
      <root>
        <mxCell id="WIyWlLk6GJQsqaUBKTNV-0" />
        <mxCell id="WIyWlLk6GJQsqaUBKTNV-1" parent="WIyWlLk6GJQsqaUBKTNV-0" />
        <mxCell id="oufMvBAxahya2CMeUMAv-0" value="Patient" style="swimlane;fontStyle=1;childLayout=stackLayout;horizontal=1;startSize=26;fillColor=none;horizontalStack=0;resizeParent=1;resizeParentMax=0;resizeLast=0;collapsible=1;marginBottom=0;fontColor=#000000;fontFamily=Ubuntu Mono;fontSource=https%3A%2F%2Ffonts.googleapis.com%2Fcss%3Ffamily%3DUbuntu%2BMono;fontSize=16;" vertex="1" parent="WIyWlLk6GJQsqaUBKTNV-1">
          <mxGeometry x="40" y="40" width="200" height="202" as="geometry">
            <mxRectangle x="40" y="40" width="200" height="30" as="alternateBounds" />
          </mxGeometry>
        </mxCell>
        <mxCell id="oufMvBAxahya2CMeUMAv-9" value="Attributes" style="swimlane;fontStyle=1;childLayout=stackLayout;horizontal=1;startSize=26;fillColor=none;horizontalStack=0;resizeParent=1;resizeParentMax=0;resizeLast=0;collapsible=1;marginBottom=0;fontColor=#000000;strokeColor=#000000;fontFamily=Ubuntu Mono;fontSource=https%3A%2F%2Ffonts.googleapis.com%2Fcss%3Ffamily%3DUbuntu%2BMono;sketch=0;" vertex="1" parent="oufMvBAxahya2CMeUMAv-0">
          <mxGeometry y="26" width="200" height="146" as="geometry">
            <mxRectangle y="26" width="200" height="30" as="alternateBounds" />
          </mxGeometry>
        </mxCell>
        <mxCell id="oufMvBAxahya2CMeUMAv-22" value="+ &lt;font color=&quot;#7EA6E0&quot;&gt;Subject ID ACA&lt;/font&gt; : &lt;font color=&quot;#97D077&quot;&gt;str&lt;/font&gt;" style="text;html=1;strokeColor=none;fillColor=none;align=left;verticalAlign=middle;whiteSpace=wrap;rounded=0;fontColor=default;fontFamily=Ubuntu Mono;fontSource=https%3A%2F%2Ffonts.googleapis.com%2Fcss%3Ffamily%3DUbuntu%2BMono;" vertex="1" parent="oufMvBAxahya2CMeUMAv-9">
          <mxGeometry y="26" width="200" height="30" as="geometry" />
        </mxCell>
        <mxCell id="oufMvBAxahya2CMeUMAv-24" value="+ &lt;font color=&quot;#7EA6E0&quot;&gt;DOB&lt;/font&gt; : &lt;font color=&quot;#97D077&quot;&gt;DateTime&lt;/font&gt;" style="text;html=1;strokeColor=none;fillColor=none;align=left;verticalAlign=middle;whiteSpace=wrap;rounded=0;fontColor=default;fontFamily=Ubuntu Mono;fontSource=https%3A%2F%2Ffonts.googleapis.com%2Fcss%3Ffamily%3DUbuntu%2BMono;" vertex="1" parent="oufMvBAxahya2CMeUMAv-9">
          <mxGeometry y="56" width="200" height="30" as="geometry" />
        </mxCell>
        <mxCell id="oufMvBAxahya2CMeUMAv-26" value="+ &lt;font color=&quot;#7EA6E0&quot;&gt;Sex&lt;/font&gt; : &lt;font color=&quot;#97D077&quot;&gt;str&lt;/font&gt;" style="text;html=1;strokeColor=none;fillColor=none;align=left;verticalAlign=middle;whiteSpace=wrap;rounded=0;fontColor=default;fontFamily=Ubuntu Mono;fontSource=https%3A%2F%2Ffonts.googleapis.com%2Fcss%3Ffamily%3DUbuntu%2BMono;" vertex="1" parent="oufMvBAxahya2CMeUMAv-9">
          <mxGeometry y="86" width="200" height="30" as="geometry" />
        </mxCell>
        <mxCell id="oufMvBAxahya2CMeUMAv-23" value="+ &lt;font color=&quot;#7EA6E0&quot;&gt;Visits&lt;/font&gt; : &lt;font color=&quot;#97D077&quot;&gt;List&lt;font color=&quot;#000000&quot;&gt;&amp;lt;&lt;/font&gt;Visit&lt;font color=&quot;#000000&quot;&gt;&amp;gt;&lt;/font&gt;&lt;/font&gt;" style="text;html=1;strokeColor=none;fillColor=none;align=left;verticalAlign=middle;whiteSpace=wrap;rounded=0;fontColor=default;fontFamily=Ubuntu Mono;fontSource=https%3A%2F%2Ffonts.googleapis.com%2Fcss%3Ffamily%3DUbuntu%2BMono;" vertex="1" parent="oufMvBAxahya2CMeUMAv-9">
          <mxGeometry y="116" width="200" height="30" as="geometry" />
        </mxCell>
        <mxCell id="oufMvBAxahya2CMeUMAv-5" value="Methods" style="swimlane;fontStyle=1;childLayout=stackLayout;horizontal=1;startSize=26;fillColor=none;horizontalStack=0;resizeParent=1;resizeParentMax=0;resizeLast=0;collapsible=1;marginBottom=0;fontColor=#000000;strokeColor=#000000;fontFamily=Ubuntu Mono;fontSource=https%3A%2F%2Ffonts.googleapis.com%2Fcss%3Ffamily%3DUbuntu%2BMono;" vertex="1" collapsed="1" parent="oufMvBAxahya2CMeUMAv-0">
          <mxGeometry y="172" width="200" height="30" as="geometry">
            <mxRectangle y="142" width="200" height="52" as="alternateBounds" />
          </mxGeometry>
        </mxCell>
        <mxCell id="oufMvBAxahya2CMeUMAv-13" value="Visit" style="swimlane;fontStyle=1;childLayout=stackLayout;horizontal=1;startSize=26;fillColor=none;horizontalStack=0;resizeParent=1;resizeParentMax=0;resizeLast=0;collapsible=1;marginBottom=0;fontColor=#000000;fontFamily=Ubuntu Mono;fontSource=https%3A%2F%2Ffonts.googleapis.com%2Fcss%3Ffamily%3DUbuntu%2BMono;fontSize=16;sketch=0;glass=0;swimlaneLine=1;shadow=0;rounded=0;" vertex="1" parent="WIyWlLk6GJQsqaUBKTNV-1">
          <mxGeometry x="360" y="230" width="200" height="112" as="geometry">
            <mxRectangle x="400" y="40" width="200" height="30" as="alternateBounds" />
          </mxGeometry>
        </mxCell>
        <mxCell id="oufMvBAxahya2CMeUMAv-14" value="Attributes" style="swimlane;fontStyle=1;childLayout=stackLayout;horizontal=1;startSize=26;fillColor=none;horizontalStack=0;resizeParent=1;resizeParentMax=0;resizeLast=0;collapsible=1;marginBottom=0;fontColor=#000000;strokeColor=#000000;fontFamily=Ubuntu Mono;fontSource=https%3A%2F%2Ffonts.googleapis.com%2Fcss%3Ffamily%3DUbuntu%2BMono;" vertex="1" parent="oufMvBAxahya2CMeUMAv-13">
          <mxGeometry y="26" width="200" height="56" as="geometry">
            <mxRectangle y="26" width="120" height="30" as="alternateBounds" />
          </mxGeometry>
        </mxCell>
        <mxCell id="oufMvBAxahya2CMeUMAv-25" value="+ &lt;font color=&quot;#7EA6E0&quot;&gt;Date&lt;/font&gt; : &lt;font color=&quot;#97D077&quot;&gt;DateTime&lt;/font&gt;" style="text;html=1;strokeColor=none;fillColor=none;align=left;verticalAlign=middle;whiteSpace=wrap;rounded=0;fontColor=default;fontFamily=Ubuntu Mono;fontSource=https%3A%2F%2Ffonts.googleapis.com%2Fcss%3Ffamily%3DUbuntu%2BMono;" vertex="1" parent="oufMvBAxahya2CMeUMAv-14">
          <mxGeometry y="26" width="200" height="30" as="geometry" />
        </mxCell>
        <mxCell id="oufMvBAxahya2CMeUMAv-18" value="Methods" style="swimlane;fontStyle=1;childLayout=stackLayout;horizontal=1;startSize=26;fillColor=none;horizontalStack=0;resizeParent=1;resizeParentMax=0;resizeLast=0;collapsible=1;marginBottom=0;fontColor=#000000;strokeColor=#000000;fontFamily=Ubuntu Mono;fontSource=https%3A%2F%2Ffonts.googleapis.com%2Fcss%3Ffamily%3DUbuntu%2BMono;" vertex="1" collapsed="1" parent="oufMvBAxahya2CMeUMAv-13">
          <mxGeometry y="82" width="200" height="30" as="geometry">
            <mxRectangle y="82" width="200" height="52" as="alternateBounds" />
          </mxGeometry>
        </mxCell>
        <mxCell id="oufMvBAxahya2CMeUMAv-27" style="edgeStyle=orthogonalEdgeStyle;rounded=0;orthogonalLoop=1;jettySize=auto;html=1;exitX=1;exitY=0.5;exitDx=0;exitDy=0;fontFamily=Ubuntu Mono;fontSource=https%3A%2F%2Ffonts.googleapis.com%2Fcss%3Ffamily%3DUbuntu%2BMono;fontSize=16;fontColor=#000000;entryX=0.5;entryY=0;entryDx=0;entryDy=0;endArrow=diamondThin;endFill=1;strokeWidth=1;endSize=14;targetPerimeterSpacing=0;sketch=1;" edge="1" parent="WIyWlLk6GJQsqaUBKTNV-1" source="oufMvBAxahya2CMeUMAv-23" target="oufMvBAxahya2CMeUMAv-13">
          <mxGeometry relative="1" as="geometry">
            <mxPoint x="340" y="197.09523809523807" as="targetPoint" />
          </mxGeometry>
        </mxCell>
      </root>
    </mxGraphModel>
  </diagram>
  <diagram id="NugxWRzHMf-DVNXkpEIe" name="data_model">
    <mxGraphModel dx="667" dy="457" grid="1" gridSize="10" guides="1" tooltips="1" connect="1" arrows="1" fold="1" page="1" pageScale="1" pageWidth="827" pageHeight="1169" math="0" shadow="0">
      <root>
        <mxCell id="0" />
        <mxCell id="1" parent="0" />
        <mxCell id="zbpZ8_c0ntZA4bGm9SPs-86" value="List" style="swimlane;fontStyle=0;childLayout=stackLayout;horizontal=1;startSize=30;horizontalStack=0;resizeParent=1;resizeParentMax=0;resizeLast=0;collapsible=1;marginBottom=0;whiteSpace=wrap;html=1;rounded=0;shadow=0;glass=0;sketch=0;strokeColor=#000000;fontFamily=Ubuntu Mono;fontSource=https%3A%2F%2Ffonts.googleapis.com%2Fcss%3Ffamily%3DUbuntu%2BMono;fontSize=16;fontColor=#000000;" vertex="1" parent="1">
          <mxGeometry y="360" width="520" height="270" as="geometry">
            <mxRectangle y="360" width="520" height="30" as="alternateBounds" />
          </mxGeometry>
        </mxCell>
        <mxCell id="zbpZ8_c0ntZA4bGm9SPs-55" value="Privacy-preserving record linkage" style="shape=table;startSize=30;container=1;collapsible=1;childLayout=tableLayout;fixedRows=1;rowLines=0;fontStyle=1;align=center;resizeLast=1;rounded=0;shadow=0;glass=0;sketch=0;strokeColor=#000000;fontFamily=Ubuntu Mono;fontSource=https%3A%2F%2Ffonts.googleapis.com%2Fcss%3Ffamily%3DUbuntu%2BMono;fontSize=16;fontColor=#000000;" vertex="1" parent="zbpZ8_c0ntZA4bGm9SPs-86">
          <mxGeometry y="30" width="520" height="240" as="geometry">
            <mxRectangle y="30" width="520" height="30" as="alternateBounds" />
          </mxGeometry>
        </mxCell>
        <mxCell id="zbpZ8_c0ntZA4bGm9SPs-56" value="" style="shape=tableRow;horizontal=0;startSize=0;swimlaneHead=0;swimlaneBody=0;fillColor=none;collapsible=0;dropTarget=0;points=[[0,0.5],[1,0.5]];portConstraint=eastwest;top=0;left=0;right=0;bottom=1;rounded=0;shadow=0;glass=0;sketch=0;strokeColor=#000000;fontFamily=Ubuntu Mono;fontSource=https%3A%2F%2Ffonts.googleapis.com%2Fcss%3Ffamily%3DUbuntu%2BMono;fontSize=16;fontColor=#000000;" vertex="1" parent="zbpZ8_c0ntZA4bGm9SPs-55">
          <mxGeometry y="30" width="520" height="30" as="geometry" />
        </mxCell>
        <mxCell id="zbpZ8_c0ntZA4bGm9SPs-57" value="Old" style="shape=partialRectangle;connectable=0;fillColor=none;top=0;left=0;bottom=0;right=0;fontStyle=5;overflow=hidden;rounded=0;shadow=0;glass=0;sketch=0;strokeColor=#000000;fontFamily=Ubuntu Mono;fontSource=https%3A%2F%2Ffonts.googleapis.com%2Fcss%3Ffamily%3DUbuntu%2BMono;fontSize=16;fontColor=#000000;align=left;spacingLeft=6;" vertex="1" parent="zbpZ8_c0ntZA4bGm9SPs-56">
          <mxGeometry width="240" height="30" as="geometry">
            <mxRectangle width="240" height="30" as="alternateBounds" />
          </mxGeometry>
        </mxCell>
        <mxCell id="zbpZ8_c0ntZA4bGm9SPs-58" value="New" style="shape=partialRectangle;connectable=0;fillColor=none;top=0;left=0;bottom=0;right=0;align=left;spacingLeft=6;fontStyle=5;overflow=hidden;rounded=0;shadow=0;glass=0;sketch=0;strokeColor=#000000;fontFamily=Ubuntu Mono;fontSource=https%3A%2F%2Ffonts.googleapis.com%2Fcss%3Ffamily%3DUbuntu%2BMono;fontSize=16;fontColor=#000000;" vertex="1" parent="zbpZ8_c0ntZA4bGm9SPs-56">
          <mxGeometry x="240" width="280" height="30" as="geometry">
            <mxRectangle width="280" height="30" as="alternateBounds" />
          </mxGeometry>
        </mxCell>
        <mxCell id="zbpZ8_c0ntZA4bGm9SPs-59" value="" style="shape=tableRow;horizontal=0;startSize=0;swimlaneHead=0;swimlaneBody=0;fillColor=none;collapsible=0;dropTarget=0;points=[[0,0.5],[1,0.5]];portConstraint=eastwest;top=0;left=0;right=0;bottom=0;rounded=0;shadow=0;glass=0;sketch=0;strokeColor=#000000;fontFamily=Ubuntu Mono;fontSource=https%3A%2F%2Ffonts.googleapis.com%2Fcss%3Ffamily%3DUbuntu%2BMono;fontSize=16;fontColor=#000000;" vertex="1" parent="zbpZ8_c0ntZA4bGm9SPs-55">
          <mxGeometry y="60" width="520" height="30" as="geometry" />
        </mxCell>
        <mxCell id="zbpZ8_c0ntZA4bGm9SPs-60" value="First name at birth" style="shape=partialRectangle;connectable=0;fillColor=none;top=0;left=0;bottom=0;right=0;editable=1;overflow=hidden;rounded=0;shadow=0;glass=0;sketch=0;strokeColor=#000000;fontFamily=Ubuntu Mono;fontSource=https%3A%2F%2Ffonts.googleapis.com%2Fcss%3Ffamily%3DUbuntu%2BMono;fontSize=16;fontColor=#000000;align=left;spacingLeft=6;" vertex="1" parent="zbpZ8_c0ntZA4bGm9SPs-59">
          <mxGeometry width="240" height="30" as="geometry">
            <mxRectangle width="240" height="30" as="alternateBounds" />
          </mxGeometry>
        </mxCell>
        <mxCell id="zbpZ8_c0ntZA4bGm9SPs-61" value="first_name_ab" style="shape=partialRectangle;connectable=0;fillColor=none;top=0;left=0;bottom=0;right=0;align=left;spacingLeft=6;overflow=hidden;rounded=0;shadow=0;glass=0;sketch=0;strokeColor=#000000;fontFamily=Ubuntu Mono;fontSource=https%3A%2F%2Ffonts.googleapis.com%2Fcss%3Ffamily%3DUbuntu%2BMono;fontSize=16;fontColor=#000000;" vertex="1" parent="zbpZ8_c0ntZA4bGm9SPs-59">
          <mxGeometry x="240" width="280" height="30" as="geometry">
            <mxRectangle width="280" height="30" as="alternateBounds" />
          </mxGeometry>
        </mxCell>
        <mxCell id="zbpZ8_c0ntZA4bGm9SPs-62" value="" style="shape=tableRow;horizontal=0;startSize=0;swimlaneHead=0;swimlaneBody=0;fillColor=none;collapsible=0;dropTarget=0;points=[[0,0.5],[1,0.5]];portConstraint=eastwest;top=0;left=0;right=0;bottom=0;rounded=0;shadow=0;glass=0;sketch=0;strokeColor=#000000;fontFamily=Ubuntu Mono;fontSource=https%3A%2F%2Ffonts.googleapis.com%2Fcss%3Ffamily%3DUbuntu%2BMono;fontSize=16;fontColor=#000000;" vertex="1" parent="zbpZ8_c0ntZA4bGm9SPs-55">
          <mxGeometry y="90" width="520" height="30" as="geometry" />
        </mxCell>
        <mxCell id="zbpZ8_c0ntZA4bGm9SPs-63" value="Last name at birth" style="shape=partialRectangle;connectable=0;fillColor=none;top=0;left=0;bottom=0;right=0;editable=1;overflow=hidden;rounded=0;shadow=0;glass=0;sketch=0;strokeColor=#000000;fontFamily=Ubuntu Mono;fontSource=https%3A%2F%2Ffonts.googleapis.com%2Fcss%3Ffamily%3DUbuntu%2BMono;fontSize=16;fontColor=#000000;align=left;spacingLeft=6;" vertex="1" parent="zbpZ8_c0ntZA4bGm9SPs-62">
          <mxGeometry width="240" height="30" as="geometry">
            <mxRectangle width="240" height="30" as="alternateBounds" />
          </mxGeometry>
        </mxCell>
        <mxCell id="zbpZ8_c0ntZA4bGm9SPs-64" value="last_name_ab" style="shape=partialRectangle;connectable=0;fillColor=none;top=0;left=0;bottom=0;right=0;align=left;spacingLeft=6;overflow=hidden;rounded=0;shadow=0;glass=0;sketch=0;strokeColor=#000000;fontFamily=Ubuntu Mono;fontSource=https%3A%2F%2Ffonts.googleapis.com%2Fcss%3Ffamily%3DUbuntu%2BMono;fontSize=16;fontColor=#000000;" vertex="1" parent="zbpZ8_c0ntZA4bGm9SPs-62">
          <mxGeometry x="240" width="280" height="30" as="geometry">
            <mxRectangle width="280" height="30" as="alternateBounds" />
          </mxGeometry>
        </mxCell>
        <mxCell id="zbpZ8_c0ntZA4bGm9SPs-65" value="" style="shape=tableRow;horizontal=0;startSize=0;swimlaneHead=0;swimlaneBody=0;fillColor=none;collapsible=0;dropTarget=0;points=[[0,0.5],[1,0.5]];portConstraint=eastwest;top=0;left=0;right=0;bottom=0;rounded=0;shadow=0;glass=0;sketch=0;strokeColor=#000000;fontFamily=Ubuntu Mono;fontSource=https%3A%2F%2Ffonts.googleapis.com%2Fcss%3Ffamily%3DUbuntu%2BMono;fontSize=16;fontColor=#000000;" vertex="1" parent="zbpZ8_c0ntZA4bGm9SPs-55">
          <mxGeometry y="120" width="520" height="30" as="geometry" />
        </mxCell>
        <mxCell id="zbpZ8_c0ntZA4bGm9SPs-66" value="Full date of birth" style="shape=partialRectangle;connectable=0;fillColor=none;top=0;left=0;bottom=0;right=0;editable=1;overflow=hidden;rounded=0;shadow=0;glass=0;sketch=0;strokeColor=#000000;fontFamily=Ubuntu Mono;fontSource=https%3A%2F%2Ffonts.googleapis.com%2Fcss%3Ffamily%3DUbuntu%2BMono;fontSize=16;fontColor=#000000;align=left;spacingLeft=6;" vertex="1" parent="zbpZ8_c0ntZA4bGm9SPs-65">
          <mxGeometry width="240" height="30" as="geometry">
            <mxRectangle width="240" height="30" as="alternateBounds" />
          </mxGeometry>
        </mxCell>
        <mxCell id="zbpZ8_c0ntZA4bGm9SPs-67" value="full_date_ob" style="shape=partialRectangle;connectable=0;fillColor=none;top=0;left=0;bottom=0;right=0;align=left;spacingLeft=6;overflow=hidden;rounded=0;shadow=0;glass=0;sketch=0;strokeColor=#000000;fontFamily=Ubuntu Mono;fontSource=https%3A%2F%2Ffonts.googleapis.com%2Fcss%3Ffamily%3DUbuntu%2BMono;fontSize=16;fontColor=#000000;" vertex="1" parent="zbpZ8_c0ntZA4bGm9SPs-65">
          <mxGeometry x="240" width="280" height="30" as="geometry">
            <mxRectangle width="280" height="30" as="alternateBounds" />
          </mxGeometry>
        </mxCell>
        <mxCell id="zbpZ8_c0ntZA4bGm9SPs-68" style="shape=tableRow;horizontal=0;startSize=0;swimlaneHead=0;swimlaneBody=0;fillColor=none;collapsible=0;dropTarget=0;points=[[0,0.5],[1,0.5]];portConstraint=eastwest;top=0;left=0;right=0;bottom=0;rounded=0;shadow=0;glass=0;sketch=0;strokeColor=#000000;fontFamily=Ubuntu Mono;fontSource=https%3A%2F%2Ffonts.googleapis.com%2Fcss%3Ffamily%3DUbuntu%2BMono;fontSize=16;fontColor=#000000;" vertex="1" parent="zbpZ8_c0ntZA4bGm9SPs-55">
          <mxGeometry y="150" width="520" height="30" as="geometry" />
        </mxCell>
        <mxCell id="zbpZ8_c0ntZA4bGm9SPs-69" value="Sex at birth" style="shape=partialRectangle;connectable=0;fillColor=none;top=0;left=0;bottom=0;right=0;editable=1;overflow=hidden;rounded=0;shadow=0;glass=0;sketch=0;strokeColor=#000000;fontFamily=Ubuntu Mono;fontSource=https%3A%2F%2Ffonts.googleapis.com%2Fcss%3Ffamily%3DUbuntu%2BMono;fontSize=16;fontColor=#000000;align=left;spacingLeft=6;" vertex="1" parent="zbpZ8_c0ntZA4bGm9SPs-68">
          <mxGeometry width="240" height="30" as="geometry">
            <mxRectangle width="240" height="30" as="alternateBounds" />
          </mxGeometry>
        </mxCell>
        <mxCell id="zbpZ8_c0ntZA4bGm9SPs-70" value="sex_ab" style="shape=partialRectangle;connectable=0;fillColor=none;top=0;left=0;bottom=0;right=0;align=left;spacingLeft=6;overflow=hidden;rounded=0;shadow=0;glass=0;sketch=0;strokeColor=#000000;fontFamily=Ubuntu Mono;fontSource=https%3A%2F%2Ffonts.googleapis.com%2Fcss%3Ffamily%3DUbuntu%2BMono;fontSize=16;fontColor=#000000;" vertex="1" parent="zbpZ8_c0ntZA4bGm9SPs-68">
          <mxGeometry x="240" width="280" height="30" as="geometry">
            <mxRectangle width="280" height="30" as="alternateBounds" />
          </mxGeometry>
        </mxCell>
        <mxCell id="zbpZ8_c0ntZA4bGm9SPs-71" style="shape=tableRow;horizontal=0;startSize=0;swimlaneHead=0;swimlaneBody=0;fillColor=none;collapsible=0;dropTarget=0;points=[[0,0.5],[1,0.5]];portConstraint=eastwest;top=0;left=0;right=0;bottom=0;rounded=0;shadow=0;glass=0;sketch=0;strokeColor=#000000;fontFamily=Ubuntu Mono;fontSource=https%3A%2F%2Ffonts.googleapis.com%2Fcss%3Ffamily%3DUbuntu%2BMono;fontSize=16;fontColor=#000000;" vertex="1" parent="zbpZ8_c0ntZA4bGm9SPs-55">
          <mxGeometry y="180" width="520" height="30" as="geometry" />
        </mxCell>
        <mxCell id="zbpZ8_c0ntZA4bGm9SPs-72" value="Country of birth" style="shape=partialRectangle;connectable=0;fillColor=none;top=0;left=0;bottom=0;right=0;editable=1;overflow=hidden;rounded=0;shadow=0;glass=0;sketch=0;strokeColor=#000000;fontFamily=Ubuntu Mono;fontSource=https%3A%2F%2Ffonts.googleapis.com%2Fcss%3Ffamily%3DUbuntu%2BMono;fontSize=16;fontColor=#000000;align=left;spacingLeft=6;" vertex="1" parent="zbpZ8_c0ntZA4bGm9SPs-71">
          <mxGeometry width="240" height="30" as="geometry">
            <mxRectangle width="240" height="30" as="alternateBounds" />
          </mxGeometry>
        </mxCell>
        <mxCell id="zbpZ8_c0ntZA4bGm9SPs-73" value="country_ob" style="shape=partialRectangle;connectable=0;fillColor=none;top=0;left=0;bottom=0;right=0;align=left;spacingLeft=6;overflow=hidden;rounded=0;shadow=0;glass=0;sketch=0;strokeColor=#000000;fontFamily=Ubuntu Mono;fontSource=https%3A%2F%2Ffonts.googleapis.com%2Fcss%3Ffamily%3DUbuntu%2BMono;fontSize=16;fontColor=#000000;" vertex="1" parent="zbpZ8_c0ntZA4bGm9SPs-71">
          <mxGeometry x="240" width="280" height="30" as="geometry">
            <mxRectangle width="280" height="30" as="alternateBounds" />
          </mxGeometry>
        </mxCell>
        <mxCell id="zbpZ8_c0ntZA4bGm9SPs-74" style="shape=tableRow;horizontal=0;startSize=0;swimlaneHead=0;swimlaneBody=0;fillColor=none;collapsible=0;dropTarget=0;points=[[0,0.5],[1,0.5]];portConstraint=eastwest;top=0;left=0;right=0;bottom=0;rounded=0;shadow=0;glass=0;sketch=0;strokeColor=#000000;fontFamily=Ubuntu Mono;fontSource=https%3A%2F%2Ffonts.googleapis.com%2Fcss%3Ffamily%3DUbuntu%2BMono;fontSize=16;fontColor=#000000;" vertex="1" parent="zbpZ8_c0ntZA4bGm9SPs-55">
          <mxGeometry y="210" width="520" height="30" as="geometry" />
        </mxCell>
        <mxCell id="zbpZ8_c0ntZA4bGm9SPs-75" value="Place of birth" style="shape=partialRectangle;connectable=0;fillColor=none;top=0;left=0;bottom=0;right=0;editable=1;overflow=hidden;rounded=0;shadow=0;glass=0;sketch=0;strokeColor=#000000;fontFamily=Ubuntu Mono;fontSource=https%3A%2F%2Ffonts.googleapis.com%2Fcss%3Ffamily%3DUbuntu%2BMono;fontSize=16;fontColor=#000000;align=left;spacingLeft=6;" vertex="1" parent="zbpZ8_c0ntZA4bGm9SPs-74">
          <mxGeometry width="240" height="30" as="geometry">
            <mxRectangle width="240" height="30" as="alternateBounds" />
          </mxGeometry>
        </mxCell>
        <mxCell id="zbpZ8_c0ntZA4bGm9SPs-76" value="place_ob" style="shape=partialRectangle;connectable=0;fillColor=none;top=0;left=0;bottom=0;right=0;align=left;spacingLeft=6;overflow=hidden;rounded=0;shadow=0;glass=0;sketch=0;strokeColor=#000000;fontFamily=Ubuntu Mono;fontSource=https%3A%2F%2Ffonts.googleapis.com%2Fcss%3Ffamily%3DUbuntu%2BMono;fontSize=16;fontColor=#000000;" vertex="1" parent="zbpZ8_c0ntZA4bGm9SPs-74">
          <mxGeometry x="240" width="280" height="30" as="geometry">
            <mxRectangle width="280" height="30" as="alternateBounds" />
          </mxGeometry>
        </mxCell>
        <mxCell id="zbpZ8_c0ntZA4bGm9SPs-10" value="Demographics" style="shape=table;startSize=30;container=1;collapsible=1;childLayout=tableLayout;fixedRows=1;rowLines=0;fontStyle=1;align=center;resizeLast=1;rounded=0;shadow=0;glass=0;sketch=0;strokeColor=#000000;fontFamily=Ubuntu Mono;fontSource=https%3A%2F%2Ffonts.googleapis.com%2Fcss%3Ffamily%3DUbuntu%2BMono;fontSize=16;fontColor=#000000;" vertex="1" parent="1">
          <mxGeometry x="550" y="380" width="520" height="150" as="geometry">
            <mxRectangle y="360" width="520" height="30" as="alternateBounds" />
          </mxGeometry>
        </mxCell>
        <mxCell id="zbpZ8_c0ntZA4bGm9SPs-11" value="" style="shape=tableRow;horizontal=0;startSize=0;swimlaneHead=0;swimlaneBody=0;fillColor=none;collapsible=0;dropTarget=0;points=[[0,0.5],[1,0.5]];portConstraint=eastwest;top=0;left=0;right=0;bottom=1;rounded=0;shadow=0;glass=0;sketch=0;strokeColor=#000000;fontFamily=Ubuntu Mono;fontSource=https%3A%2F%2Ffonts.googleapis.com%2Fcss%3Ffamily%3DUbuntu%2BMono;fontSize=16;fontColor=#000000;" vertex="1" parent="zbpZ8_c0ntZA4bGm9SPs-10">
          <mxGeometry y="30" width="520" height="30" as="geometry" />
        </mxCell>
        <mxCell id="zbpZ8_c0ntZA4bGm9SPs-12" value="Old" style="shape=partialRectangle;connectable=0;fillColor=none;top=0;left=0;bottom=0;right=0;fontStyle=5;overflow=hidden;rounded=0;shadow=0;glass=0;sketch=0;strokeColor=#000000;fontFamily=Ubuntu Mono;fontSource=https%3A%2F%2Ffonts.googleapis.com%2Fcss%3Ffamily%3DUbuntu%2BMono;fontSize=16;fontColor=#000000;align=left;spacingLeft=6;" vertex="1" parent="zbpZ8_c0ntZA4bGm9SPs-11">
          <mxGeometry width="240" height="30" as="geometry">
            <mxRectangle width="240" height="30" as="alternateBounds" />
          </mxGeometry>
        </mxCell>
        <mxCell id="zbpZ8_c0ntZA4bGm9SPs-13" value="New" style="shape=partialRectangle;connectable=0;fillColor=none;top=0;left=0;bottom=0;right=0;align=left;spacingLeft=6;fontStyle=5;overflow=hidden;rounded=0;shadow=0;glass=0;sketch=0;strokeColor=#000000;fontFamily=Ubuntu Mono;fontSource=https%3A%2F%2Ffonts.googleapis.com%2Fcss%3Ffamily%3DUbuntu%2BMono;fontSize=16;fontColor=#000000;" vertex="1" parent="zbpZ8_c0ntZA4bGm9SPs-11">
          <mxGeometry x="240" width="280" height="30" as="geometry">
            <mxRectangle width="280" height="30" as="alternateBounds" />
          </mxGeometry>
        </mxCell>
        <mxCell id="zbpZ8_c0ntZA4bGm9SPs-46" style="shape=tableRow;horizontal=0;startSize=0;swimlaneHead=0;swimlaneBody=0;fillColor=none;collapsible=0;dropTarget=0;points=[[0,0.5],[1,0.5]];portConstraint=eastwest;top=0;left=0;right=0;bottom=0;rounded=0;shadow=0;glass=0;sketch=0;strokeColor=#000000;fontFamily=Ubuntu Mono;fontSource=https%3A%2F%2Ffonts.googleapis.com%2Fcss%3Ffamily%3DUbuntu%2BMono;fontSize=16;fontColor=#000000;" vertex="1" parent="zbpZ8_c0ntZA4bGm9SPs-10">
          <mxGeometry y="60" width="520" height="30" as="geometry" />
        </mxCell>
        <mxCell id="zbpZ8_c0ntZA4bGm9SPs-47" value="Date of birth" style="shape=partialRectangle;connectable=0;fillColor=none;top=0;left=0;bottom=0;right=0;editable=1;overflow=hidden;rounded=0;shadow=0;glass=0;sketch=0;strokeColor=#000000;fontFamily=Ubuntu Mono;fontSource=https%3A%2F%2Ffonts.googleapis.com%2Fcss%3Ffamily%3DUbuntu%2BMono;fontSize=16;fontColor=#000000;align=left;spacingLeft=6;" vertex="1" parent="zbpZ8_c0ntZA4bGm9SPs-46">
          <mxGeometry width="240" height="30" as="geometry">
            <mxRectangle width="240" height="30" as="alternateBounds" />
          </mxGeometry>
        </mxCell>
        <mxCell id="zbpZ8_c0ntZA4bGm9SPs-48" value="date_ob" style="shape=partialRectangle;connectable=0;fillColor=none;top=0;left=0;bottom=0;right=0;align=left;spacingLeft=6;overflow=hidden;rounded=0;shadow=0;glass=0;sketch=0;strokeColor=#000000;fontFamily=Ubuntu Mono;fontSource=https%3A%2F%2Ffonts.googleapis.com%2Fcss%3Ffamily%3DUbuntu%2BMono;fontSize=16;fontColor=#000000;" vertex="1" parent="zbpZ8_c0ntZA4bGm9SPs-46">
          <mxGeometry x="240" width="280" height="30" as="geometry">
            <mxRectangle width="280" height="30" as="alternateBounds" />
          </mxGeometry>
        </mxCell>
        <mxCell id="zbpZ8_c0ntZA4bGm9SPs-49" style="shape=tableRow;horizontal=0;startSize=0;swimlaneHead=0;swimlaneBody=0;fillColor=none;collapsible=0;dropTarget=0;points=[[0,0.5],[1,0.5]];portConstraint=eastwest;top=0;left=0;right=0;bottom=0;rounded=0;shadow=0;glass=0;sketch=0;strokeColor=#000000;fontFamily=Ubuntu Mono;fontSource=https%3A%2F%2Ffonts.googleapis.com%2Fcss%3Ffamily%3DUbuntu%2BMono;fontSize=16;fontColor=#000000;" vertex="1" parent="zbpZ8_c0ntZA4bGm9SPs-10">
          <mxGeometry y="90" width="520" height="30" as="geometry" />
        </mxCell>
        <mxCell id="zbpZ8_c0ntZA4bGm9SPs-50" value="Sex" style="shape=partialRectangle;connectable=0;fillColor=none;top=0;left=0;bottom=0;right=0;editable=1;overflow=hidden;rounded=0;shadow=0;glass=0;sketch=0;strokeColor=#000000;fontFamily=Ubuntu Mono;fontSource=https%3A%2F%2Ffonts.googleapis.com%2Fcss%3Ffamily%3DUbuntu%2BMono;fontSize=16;fontColor=#000000;align=left;spacingLeft=6;" vertex="1" parent="zbpZ8_c0ntZA4bGm9SPs-49">
          <mxGeometry width="240" height="30" as="geometry">
            <mxRectangle width="240" height="30" as="alternateBounds" />
          </mxGeometry>
        </mxCell>
        <mxCell id="zbpZ8_c0ntZA4bGm9SPs-51" value="sex" style="shape=partialRectangle;connectable=0;fillColor=none;top=0;left=0;bottom=0;right=0;align=left;spacingLeft=6;overflow=hidden;rounded=0;shadow=0;glass=0;sketch=0;strokeColor=#000000;fontFamily=Ubuntu Mono;fontSource=https%3A%2F%2Ffonts.googleapis.com%2Fcss%3Ffamily%3DUbuntu%2BMono;fontSize=16;fontColor=#000000;" vertex="1" parent="zbpZ8_c0ntZA4bGm9SPs-49">
          <mxGeometry x="240" width="280" height="30" as="geometry">
            <mxRectangle width="280" height="30" as="alternateBounds" />
          </mxGeometry>
        </mxCell>
        <mxCell id="zbpZ8_c0ntZA4bGm9SPs-52" style="shape=tableRow;horizontal=0;startSize=0;swimlaneHead=0;swimlaneBody=0;fillColor=none;collapsible=0;dropTarget=0;points=[[0,0.5],[1,0.5]];portConstraint=eastwest;top=0;left=0;right=0;bottom=0;rounded=0;shadow=0;glass=0;sketch=0;strokeColor=#000000;fontFamily=Ubuntu Mono;fontSource=https%3A%2F%2Ffonts.googleapis.com%2Fcss%3Ffamily%3DUbuntu%2BMono;fontSize=16;fontColor=#000000;" vertex="1" parent="zbpZ8_c0ntZA4bGm9SPs-10">
          <mxGeometry y="120" width="520" height="30" as="geometry" />
        </mxCell>
        <mxCell id="zbpZ8_c0ntZA4bGm9SPs-53" value="Country of residence" style="shape=partialRectangle;connectable=0;fillColor=none;top=0;left=0;bottom=0;right=0;editable=1;overflow=hidden;rounded=0;shadow=0;glass=0;sketch=0;strokeColor=#000000;fontFamily=Ubuntu Mono;fontSource=https%3A%2F%2Ffonts.googleapis.com%2Fcss%3Ffamily%3DUbuntu%2BMono;fontSize=16;fontColor=#000000;align=left;spacingLeft=6;" vertex="1" parent="zbpZ8_c0ntZA4bGm9SPs-52">
          <mxGeometry width="240" height="30" as="geometry">
            <mxRectangle width="240" height="30" as="alternateBounds" />
          </mxGeometry>
        </mxCell>
        <mxCell id="zbpZ8_c0ntZA4bGm9SPs-54" value="country_residence" style="shape=partialRectangle;connectable=0;fillColor=none;top=0;left=0;bottom=0;right=0;align=left;spacingLeft=6;overflow=hidden;rounded=0;shadow=0;glass=0;sketch=0;strokeColor=#000000;fontFamily=Ubuntu Mono;fontSource=https%3A%2F%2Ffonts.googleapis.com%2Fcss%3Ffamily%3DUbuntu%2BMono;fontSize=16;fontColor=#000000;" vertex="1" parent="zbpZ8_c0ntZA4bGm9SPs-52">
          <mxGeometry x="240" width="280" height="30" as="geometry">
            <mxRectangle width="280" height="30" as="alternateBounds" />
          </mxGeometry>
        </mxCell>
      </root>
    </mxGraphModel>
  </diagram>
</mxfile>
